<!DOCTYPE svg PUBLIC "-//W3C//DTD SVG 1.1//EN" "http://www.w3.org/Graphics/SVG/1.1/DTD/svg11.dtd">
<!-- Uploaded to: SVG Repo, www.svgrepo.com, Transformed by: SVG Repo Mixer Tools -->
<svg fill="#ffffff" version="1.1" id="Capa_1" xmlns="http://www.w3.org/2000/svg" xmlns:xlink="http://www.w3.org/1999/xlink" width="151px" height="151px" viewBox="0 0 42.94 42.94" xml:space="preserve" stroke="#ffffff" stroke-width="0.00042938000000000004">
<g id="SVGRepo_bgCarrier" stroke-width="0"/>
<g id="SVGRepo_tracerCarrier" stroke-linecap="round" stroke-linejoin="round"/>
<g id="SVGRepo_iconCarrier"> <g> <path d="M38.438,2.676H4.5c-2.485,0-4.5,2.016-4.5,4.5v22.238c0,2.484,2.015,4.5,4.5,4.5h25.783l4.953,5.012 c0.861,0.872,2.021,1.336,3.201,1.336c0.574,0,1.156-0.109,1.709-0.338c1.688-0.693,2.791-2.338,2.791-4.162V7.176 C42.938,4.692,40.924,2.676,38.438,2.676z M11.094,23.969c-2.691,0-4.875-2.184-4.875-4.875c0-2.691,2.184-4.875,4.875-4.875 s4.875,2.184,4.875,4.875C15.969,21.785,13.785,23.969,11.094,23.969z M21.469,23.969c-2.691,0-4.875-2.184-4.875-4.875 c0-2.691,2.184-4.875,4.875-4.875s4.875,2.184,4.875,4.875C26.344,21.785,24.16,23.969,21.469,23.969z M31.844,23.969 c-2.69,0-4.875-2.184-4.875-4.875c0-2.691,2.185-4.875,4.875-4.875c2.691,0,4.875,2.184,4.875,4.875 C36.719,21.785,34.535,23.969,31.844,23.969z"/> </g> </g>
</svg>